<?xml version="1.0" encoding="UTF-8" standalone="no"?><svg xmlns="http://www.w3.org/2000/svg" xmlns:xlink="http://www.w3.org/1999/xlink" contentScriptType="application/ecmascript" contentStyleType="text/css" height="371px" preserveAspectRatio="none" style="width:667px;height:371px;background:#FFFFFF;" version="1.1" viewBox="0 0 667 371" width="667px" zoomAndPan="magnify"><defs><filter height="300%" id="f1nhevow3bs3he" width="300%" x="-1" y="-1"><feGaussianBlur result="blurOut" stdDeviation="2.0"/><feColorMatrix in="blurOut" result="blurOut2" type="matrix" values="0 0 0 0 0 0 0 0 0 0 0 0 0 0 0 0 0 0 .4 0"/><feOffset dx="4.0" dy="4.0" in="blurOut2" result="blurOut3"/><feBlend in="SourceGraphic" in2="blurOut3" mode="normal"/></filter></defs><g><!--MD5=[80f29dbcbe2236220e59b204657d0953]
class IMutationCommand--><rect codeLine="1" fill="#FEFECE" filter="url(#f1nhevow3bs3he)" height="81.5078" id="IMutationCommand" style="stroke:#A80036;stroke-width:1.5;" width="152" x="501" y="252"/><ellipse cx="520.95" cy="268" fill="#B4A7E5" rx="11" ry="11" style="stroke:#A80036;stroke-width:1.0;"/><path d="M521.9031,264.6406 L521.9031,271.2969 L523.6219,271.2969 Q524.2313,271.2969 524.4969,271.5313 Q524.7625,271.7656 524.7625,272.1563 Q524.7625,272.5313 524.4969,272.7656 Q524.2313,273 523.6219,273 L518.4813,273 Q517.8719,273 517.6063,272.7656 Q517.3406,272.5313 517.3406,272.1406 Q517.3406,271.7656 517.6063,271.5313 Q517.8719,271.2969 518.4813,271.2969 L520.2,271.2969 L520.2,264.6406 L518.4813,264.6406 Q517.8719,264.6406 517.6063,264.4063 Q517.3406,264.1719 517.3406,263.7813 Q517.3406,263.4063 517.6063,263.1719 Q517.8719,262.9375 518.4813,262.9375 L523.6219,262.9375 Q524.2313,262.9375 524.4969,263.1719 Q524.7625,263.4063 524.7625,263.7813 Q524.7625,264.1719 524.4969,264.4063 Q524.2313,264.6406 523.6219,264.6406 L521.9031,264.6406 Z " fill="#000000"/><text fill="#000000" font-family="sans-serif" font-size="12" font-style="italic" lengthAdjust="spacing" textLength="109" x="536.05" y="272.9102">IMutationCommand</text><line style="stroke:#A80036;stroke-width:1.5;" x1="502" x2="652" y1="284" y2="284"/><text fill="#000000" font-family="sans-serif" font-size="11" lengthAdjust="spacing" textLength="88" x="507" y="299.4189">start(study, args);</text><text fill="#000000" font-family="sans-serif" font-size="11" lengthAdjust="spacing" textLength="136" x="507" y="313.2549">getInterviewItems(pageSet);</text><text fill="#000000" font-family="sans-serif" font-size="11" lengthAdjust="spacing" textLength="140" x="507" y="327.0908">apply(study, interviewItems);</text><!--MD5=[b57d2bdb0ec648c024f70c5efc1808d3]
class Study--><rect codeLine="7" fill="#FEFECE" filter="url(#f1nhevow3bs3he)" height="131.0156" id="Study" style="stroke:#A80036;stroke-width:1.5;" width="179" x="254" y="7"/><ellipse cx="324.25" cy="23" fill="#ADD1B2" rx="11" ry="11" style="stroke:#A80036;stroke-width:1.0;"/><path d="M327.0156,18.875 Q327.1719,18.6563 327.3594,18.5469 Q327.5469,18.4375 327.7656,18.4375 Q328.1406,18.4375 328.375,18.7031 Q328.6094,18.9531 328.6094,19.5625 L328.6094,21.0156 Q328.6094,21.625 328.375,21.8906 Q328.1406,22.1563 327.7656,22.1563 Q327.4219,22.1563 327.2188,21.9531 Q327.0156,21.7656 326.9063,21.25 Q326.8594,20.8906 326.6719,20.7031 Q326.3438,20.3281 325.7344,20.1094 Q325.125,19.8906 324.5,19.8906 Q323.7344,19.8906 323.0938,20.2188 Q322.4688,20.5469 321.9688,21.2969 Q321.4844,22.0469 321.4844,23.0781 L321.4844,24.1719 Q321.4844,25.4063 322.375,26.2344 Q323.2656,27.0469 324.8594,27.0469 Q325.7969,27.0469 326.4531,26.7969 Q326.8438,26.6406 327.2656,26.2031 Q327.5313,25.9375 327.6719,25.8594 Q327.8281,25.7813 328.0313,25.7813 Q328.3594,25.7813 328.6094,26.0469 Q328.875,26.2969 328.875,26.6406 Q328.875,26.9844 328.5313,27.3906 Q328.0313,27.9688 327.2344,28.2969 Q326.1563,28.75 324.8594,28.75 Q323.3438,28.75 322.1406,28.125 Q321.1563,27.625 320.4688,26.5625 Q319.7813,25.4844 319.7813,24.2031 L319.7813,23.0469 Q319.7813,21.7188 320.3906,20.5781 Q321.0156,19.4219 322.1094,18.8125 Q323.2031,18.1875 324.4375,18.1875 Q325.1719,18.1875 325.8125,18.3594 Q326.4688,18.5156 327.0156,18.875 Z " fill="#000000"/><text fill="#000000" font-family="sans-serif" font-size="12" lengthAdjust="spacing" textLength="30" x="344.75" y="27.9102">Study</text><line style="stroke:#A80036;stroke-width:1.5;" x1="255" x2="432" y1="39" y2="39"/><ellipse cx="265" cy="50" rx="3" ry="3" style="stroke:#038048;stroke-width:1.0;fill:none;"/><text fill="#000000" font-family="sans-serif" font-size="11" lengthAdjust="spacing" textLength="46" x="274" y="54.4189">pageSets</text><ellipse cx="265" cy="63.8359" rx="3" ry="3" style="stroke:#038048;stroke-width:1.0;fill:none;"/><text fill="#000000" font-family="sans-serif" font-size="11" lengthAdjust="spacing" textLength="30" x="274" y="68.2549">pages</text><ellipse cx="265" cy="77.6719" rx="3" ry="3" style="stroke:#038048;stroke-width:1.0;fill:none;"/><text fill="#000000" font-family="sans-serif" font-size="11" lengthAdjust="spacing" textLength="25" x="274" y="82.0908">items</text><ellipse cx="265" cy="91.5078" rx="3" ry="3" style="stroke:#038048;stroke-width:1.0;fill:none;"/><text fill="#000000" font-family="sans-serif" font-size="11" lengthAdjust="spacing" textLength="52" x="274" y="95.9268">wotkflows</text><ellipse cx="265" cy="105.3438" rx="3" ry="3" style="stroke:#038048;stroke-width:1.0;fill:none;"/><text fill="#000000" font-family="sans-serif" font-size="11" lengthAdjust="spacing" textLength="55" x="274" y="109.7627">crossRules</text><line style="stroke:#A80036;stroke-width:1.5;" x1="255" x2="432" y1="116.1797" y2="116.1797"/><ellipse cx="265" cy="127.1797" fill="#84BE84" rx="3" ry="3" style="stroke:#038048;stroke-width:1.0;"/><text fill="#000000" font-family="sans-serif" font-size="11" lengthAdjust="spacing" textLength="153" x="274" y="131.5986">update(kwargs: Partial&lt;Study&gt;)</text><!--MD5=[1255fc36eafb86bfe53a874538108190]
class StudyAdapter--><rect codeLine="16" fill="#FEFECE" filter="url(#f1nhevow3bs3he)" height="180.7109" id="StudyAdapter" style="stroke:#A80036;stroke-width:1.5;" width="159" x="264" y="177"/><ellipse cx="303.75" cy="197.0938" fill="#FF69B4" rx="11" ry="11" style="stroke:#A80036;stroke-width:1.0;"/><path d="M306.5156,192.9688 Q306.6719,192.75 306.8594,192.6406 Q307.0469,192.5313 307.2656,192.5313 Q307.6406,192.5313 307.875,192.7969 Q308.1094,193.0469 308.1094,193.6563 L308.1094,195.1094 Q308.1094,195.7188 307.875,195.9844 Q307.6406,196.25 307.2656,196.25 Q306.9219,196.25 306.7188,196.0469 Q306.5156,195.8594 306.4063,195.3438 Q306.3594,194.9844 306.1719,194.7969 Q305.8438,194.4219 305.2344,194.2031 Q304.625,193.9844 304,193.9844 Q303.2344,193.9844 302.5938,194.3125 Q301.9688,194.6406 301.4688,195.3906 Q300.9844,196.1406 300.9844,197.1719 L300.9844,198.2656 Q300.9844,199.5 301.875,200.3281 Q302.7656,201.1406 304.3594,201.1406 Q305.2969,201.1406 305.9531,200.8906 Q306.3438,200.7344 306.7656,200.2969 Q307.0313,200.0313 307.1719,199.9531 Q307.3281,199.875 307.5313,199.875 Q307.8594,199.875 308.1094,200.1406 Q308.375,200.3906 308.375,200.7344 Q308.375,201.0781 308.0313,201.4844 Q307.5313,202.0625 306.7344,202.3906 Q305.6563,202.8438 304.3594,202.8438 Q302.8438,202.8438 301.6406,202.2188 Q300.6563,201.7188 299.9688,200.6563 Q299.2813,199.5781 299.2813,198.2969 L299.2813,197.1406 Q299.2813,195.8125 299.8906,194.6719 Q300.5156,193.5156 301.6094,192.9063 Q302.7031,192.2813 303.9375,192.2813 Q304.6719,192.2813 305.3125,192.4531 Q305.9688,192.6094 306.5156,192.9688 Z " fill="#000000"/><text fill="#000000" font-family="sans-serif" font-size="12" font-style="italic" lengthAdjust="spacing" textLength="45" x="336.75" y="194.457">«Proxy»</text><text fill="#000000" font-family="sans-serif" font-size="12" lengthAdjust="spacing" textLength="72" x="323.25" y="209.5508">StudyAdapter</text><line style="stroke:#A80036;stroke-width:1.5;" x1="265" x2="422" y1="217.1875" y2="217.1875"/><ellipse cx="275" cy="228.1875" rx="3" ry="3" style="stroke:#038048;stroke-width:1.0;fill:none;"/><text fill="#000000" font-family="sans-serif" font-size="11" lengthAdjust="spacing" textLength="26" x="284" y="232.6064">value</text><ellipse cx="275" cy="242.0234" rx="3" ry="3" style="stroke:#038048;stroke-width:1.0;fill:none;"/><text fill="#000000" font-family="sans-serif" font-size="11" lengthAdjust="spacing" textLength="46" x="284" y="246.4424">pageSets</text><ellipse cx="275" cy="255.8594" rx="3" ry="3" style="stroke:#038048;stroke-width:1.0;fill:none;"/><text fill="#000000" font-family="sans-serif" font-size="11" lengthAdjust="spacing" textLength="30" x="284" y="260.2783">pages</text><ellipse cx="275" cy="269.6953" rx="3" ry="3" style="stroke:#038048;stroke-width:1.0;fill:none;"/><text fill="#000000" font-family="sans-serif" font-size="11" lengthAdjust="spacing" textLength="25" x="284" y="274.1143">items</text><ellipse cx="275" cy="283.5313" rx="3" ry="3" style="stroke:#038048;stroke-width:1.0;fill:none;"/><text fill="#000000" font-family="sans-serif" font-size="11" lengthAdjust="spacing" textLength="52" x="284" y="287.9502">wotkflows</text><ellipse cx="275" cy="297.3672" rx="3" ry="3" style="stroke:#038048;stroke-width:1.0;fill:none;"/><text fill="#000000" font-family="sans-serif" font-size="11" lengthAdjust="spacing" textLength="55" x="284" y="301.7861">crossRules</text><line style="stroke:#A80036;stroke-width:1.5;" x1="265" x2="422" y1="308.2031" y2="308.2031"/><ellipse cx="275" cy="319.2031" fill="#84BE84" rx="3" ry="3" style="stroke:#038048;stroke-width:1.0;"/><text fill="#000000" font-family="sans-serif" font-size="11" lengthAdjust="spacing" textLength="104" x="284" y="323.6221">start(command, args)</text><ellipse cx="275" cy="333.0391" fill="#84BE84" rx="3" ry="3" style="stroke:#038048;stroke-width:1.0;"/><text fill="#000000" font-family="sans-serif" font-size="11" lengthAdjust="spacing" textLength="133" x="284" y="337.458">getInterviewItems(pageSet)</text><ellipse cx="275" cy="346.875" fill="#84BE84" rx="3" ry="3" style="stroke:#038048;stroke-width:1.0;"/><text fill="#000000" font-family="sans-serif" font-size="11" lengthAdjust="spacing" textLength="104" x="284" y="351.2939">apply(interviewItems)</text><!--MD5=[9dd4eaa2771a2ff8dbee15cc1e732cab]
class Patient--><rect codeLine="28" fill="#FEFECE" filter="url(#f1nhevow3bs3he)" height="103.3438" id="Patient" style="stroke:#A80036;stroke-width:1.5;" width="179" x="7" y="91"/><ellipse cx="73.25" cy="107" fill="#ADD1B2" rx="11" ry="11" style="stroke:#A80036;stroke-width:1.0;"/><path d="M76.0156,102.875 Q76.1719,102.6563 76.3594,102.5469 Q76.5469,102.4375 76.7656,102.4375 Q77.1406,102.4375 77.375,102.7031 Q77.6094,102.9531 77.6094,103.5625 L77.6094,105.0156 Q77.6094,105.625 77.375,105.8906 Q77.1406,106.1563 76.7656,106.1563 Q76.4219,106.1563 76.2188,105.9531 Q76.0156,105.7656 75.9063,105.25 Q75.8594,104.8906 75.6719,104.7031 Q75.3438,104.3281 74.7344,104.1094 Q74.125,103.8906 73.5,103.8906 Q72.7344,103.8906 72.0938,104.2188 Q71.4688,104.5469 70.9688,105.2969 Q70.4844,106.0469 70.4844,107.0781 L70.4844,108.1719 Q70.4844,109.4063 71.375,110.2344 Q72.2656,111.0469 73.8594,111.0469 Q74.7969,111.0469 75.4531,110.7969 Q75.8438,110.6406 76.2656,110.2031 Q76.5313,109.9375 76.6719,109.8594 Q76.8281,109.7813 77.0313,109.7813 Q77.3594,109.7813 77.6094,110.0469 Q77.875,110.2969 77.875,110.6406 Q77.875,110.9844 77.5313,111.3906 Q77.0313,111.9688 76.2344,112.2969 Q75.1563,112.75 73.8594,112.75 Q72.3438,112.75 71.1406,112.125 Q70.1563,111.625 69.4688,110.5625 Q68.7813,109.4844 68.7813,108.2031 L68.7813,107.0469 Q68.7813,105.7188 69.3906,104.5781 Q70.0156,103.4219 71.1094,102.8125 Q72.2031,102.1875 73.4375,102.1875 Q74.1719,102.1875 74.8125,102.3594 Q75.4688,102.5156 76.0156,102.875 Z " fill="#000000"/><text fill="#000000" font-family="sans-serif" font-size="12" lengthAdjust="spacing" textLength="38" x="93.75" y="111.9102">Patient</text><line style="stroke:#A80036;stroke-width:1.5;" x1="8" x2="185" y1="123" y2="123"/><ellipse cx="18" cy="134" rx="3" ry="3" style="stroke:#038048;stroke-width:1.0;fill:none;"/><text fill="#000000" font-family="sans-serif" font-size="11" lengthAdjust="spacing" textLength="57" x="27" y="138.4189">patientCode</text><ellipse cx="18" cy="147.8359" rx="3" ry="3" style="stroke:#038048;stroke-width:1.0;fill:none;"/><text fill="#000000" font-family="sans-serif" font-size="11" lengthAdjust="spacing" textLength="42" x="27" y="152.2549">siteCode</text><ellipse cx="18" cy="161.6719" rx="3" ry="3" style="stroke:#038048;stroke-width:1.0;fill:none;"/><text fill="#000000" font-family="sans-serif" font-size="11" lengthAdjust="spacing" textLength="51" x="27" y="166.0908">interviews</text><line style="stroke:#A80036;stroke-width:1.5;" x1="8" x2="185" y1="172.5078" y2="172.5078"/><ellipse cx="18" cy="183.5078" fill="#84BE84" rx="3" ry="3" style="stroke:#038048;stroke-width:1.0;"/><text fill="#000000" font-family="sans-serif" font-size="11" lengthAdjust="spacing" textLength="153" x="27" y="187.9268">update(kwargs: Partial&lt;Patient&gt;</text><!--MD5=[0b9207cc938f9f5d7dcdd4f208bb5239]
class PatientAdapter--><rect codeLine="35" fill="#FEFECE" filter="url(#f1nhevow3bs3he)" height="111.5313" id="PatientAdapter" style="stroke:#A80036;stroke-width:1.5;" width="179" x="7" y="233"/><ellipse cx="52.25" cy="253.0938" fill="#FF69B4" rx="11" ry="11" style="stroke:#A80036;stroke-width:1.0;"/><path d="M55.0156,248.9688 Q55.1719,248.75 55.3594,248.6406 Q55.5469,248.5313 55.7656,248.5313 Q56.1406,248.5313 56.375,248.7969 Q56.6094,249.0469 56.6094,249.6563 L56.6094,251.1094 Q56.6094,251.7188 56.375,251.9844 Q56.1406,252.25 55.7656,252.25 Q55.4219,252.25 55.2188,252.0469 Q55.0156,251.8594 54.9063,251.3438 Q54.8594,250.9844 54.6719,250.7969 Q54.3438,250.4219 53.7344,250.2031 Q53.125,249.9844 52.5,249.9844 Q51.7344,249.9844 51.0938,250.3125 Q50.4688,250.6406 49.9688,251.3906 Q49.4844,252.1406 49.4844,253.1719 L49.4844,254.2656 Q49.4844,255.5 50.375,256.3281 Q51.2656,257.1406 52.8594,257.1406 Q53.7969,257.1406 54.4531,256.8906 Q54.8438,256.7344 55.2656,256.2969 Q55.5313,256.0313 55.6719,255.9531 Q55.8281,255.875 56.0313,255.875 Q56.3594,255.875 56.6094,256.1406 Q56.875,256.3906 56.875,256.7344 Q56.875,257.0781 56.5313,257.4844 Q56.0313,258.0625 55.2344,258.3906 Q54.1563,258.8438 52.8594,258.8438 Q51.3438,258.8438 50.1406,258.2188 Q49.1563,257.7188 48.4688,256.6563 Q47.7813,255.5781 47.7813,254.2969 L47.7813,253.1406 Q47.7813,251.8125 48.3906,250.6719 Q49.0156,249.5156 50.1094,248.9063 Q51.2031,248.2813 52.4375,248.2813 Q53.1719,248.2813 53.8125,248.4531 Q54.4688,248.6094 55.0156,248.9688 Z " fill="#000000"/><text fill="#000000" font-family="sans-serif" font-size="12" font-style="italic" lengthAdjust="spacing" textLength="45" x="90.25" y="250.457">«Proxy»</text><text fill="#000000" font-family="sans-serif" font-size="12" lengthAdjust="spacing" textLength="80" x="72.75" y="265.5508">PatientAdapter</text><line style="stroke:#A80036;stroke-width:1.5;" x1="8" x2="185" y1="273.1875" y2="273.1875"/><ellipse cx="18" cy="284.1875" rx="3" ry="3" style="stroke:#038048;stroke-width:1.0;fill:none;"/><text fill="#000000" font-family="sans-serif" font-size="11" lengthAdjust="spacing" textLength="57" x="27" y="288.6064">patientCode</text><ellipse cx="18" cy="298.0234" rx="3" ry="3" style="stroke:#038048;stroke-width:1.0;fill:none;"/><text fill="#000000" font-family="sans-serif" font-size="11" lengthAdjust="spacing" textLength="42" x="27" y="302.4424">siteCode</text><ellipse cx="18" cy="311.8594" rx="3" ry="3" style="stroke:#038048;stroke-width:1.0;fill:none;"/><text fill="#000000" font-family="sans-serif" font-size="11" lengthAdjust="spacing" textLength="51" x="27" y="316.2783">interviews</text><line style="stroke:#A80036;stroke-width:1.5;" x1="8" x2="185" y1="322.6953" y2="322.6953"/><ellipse cx="18" cy="333.6953" fill="#84BE84" rx="3" ry="3" style="stroke:#038048;stroke-width:1.0;"/><text fill="#000000" font-family="sans-serif" font-size="11" lengthAdjust="spacing" textLength="153" x="27" y="338.1143">update(kwargs: Partial&lt;Patient&gt;</text><!--MD5=[bac8513b6625e5c528b5dd8ce7763696]
link StudyAdapter to IMutationCommand--><path codeLine="43" d="M442.9615,277.1203 C442.9615,277.1203 468.01,279.84 479.65,281.09 " fill="none" id="StudyAdapter-IMutationCommand" style="stroke:#A80036;stroke-width:1.0;"/><polygon fill="#A80036" points="492.64,282.5,484.1229,277.5543,487.6691,281.9617,483.2617,285.5078,492.64,282.5" style="stroke:#A80036;stroke-width:1.0;"/><line style="stroke:#A80036;stroke-width:1.0;" x1="487.6691" x2="479.72" y1="281.9617" y2="281.105"/><polygon fill="#A80036" points="431.03,275.84,436.569,280.4573,442.9615,277.1203,437.4225,272.503,431.03,275.84" style="stroke:#A80036;stroke-width:1.0;"/><!--MD5=[bac8513b6625e5c528b5dd8ce7763696]
link StudyAdapter to IMutationCommand--><path codeLine="44" d="M424.5,333.5 C458.05,333.5 464.09,310.97 494.84,308.69 " fill="none" id="StudyAdapter-to-IMutationCommand" style="stroke:#A80036;stroke-width:1.0;stroke-dasharray:7.0,7.0;"/><polygon fill="#A80036" points="500,308.5,490.8577,304.8368,495.0034,308.6856,491.1547,312.8313,500,308.5" style="stroke:#A80036;stroke-width:1.0;"/><!--MD5=[c2a6379cae6913eb9fcf8b2622a5b096]
reverse link Study to StudyAdapter--><path codeLine="45" d="M343.5,158.18 C343.5,163.09 343.5,168 343.5,172.91 " fill="none" id="Study-backto-StudyAdapter" style="stroke:#A80036;stroke-width:1.0;stroke-dasharray:7.0,7.0;"/><polygon fill="none" points="336.5,158,343.5,138,350.5,158,336.5,158" style="stroke:#A80036;stroke-width:1.0;"/><!--MD5=[7c9230b63a57399e7764c33f2c6ea47d]
reverse link Patient to PatientAdapter--><path codeLine="46" d="M96.5,214.22 C96.5,219.1 96.5,223.99 96.5,228.88 " fill="none" id="Patient-backto-PatientAdapter" style="stroke:#A80036;stroke-width:1.0;stroke-dasharray:7.0,7.0;"/><polygon fill="none" points="89.5,214.12,96.5,194.12,103.5,214.12,89.5,214.12" style="stroke:#A80036;stroke-width:1.0;"/><!--MD5=[9bb6f2952a2de66c590c1980bd268458]
link PatientAdapter to StudyAdapter--><path codeLine="47" d="M206.2858,278.1707 C206.2858,278.1707 231.13,276.05 242.84,275.04 " fill="none" id="PatientAdapter-StudyAdapter" style="stroke:#A80036;stroke-width:1.0;"/><polygon fill="#A80036" points="255.91,273.92,246.6039,270.6957,250.9279,274.343,247.2806,278.667,255.91,273.92" style="stroke:#A80036;stroke-width:1.0;"/><line style="stroke:#A80036;stroke-width:1.0;" x1="250.9279" x2="242.955" y1="274.343" y2="275.035"/><polygon fill="#A80036" points="194.33,279.2,200.651,282.6706,206.2858,278.1707,199.9648,274.7001,194.33,279.2" style="stroke:#A80036;stroke-width:1.0;"/><!--MD5=[9bb6f2952a2de66c590c1980bd268458]
link PatientAdapter to StudyAdapter--><path codeLine="48" d="M187.5,311.5 C220.88,311.5 227.68,331.32 258.36,333.34 " fill="none" id="PatientAdapter-to-StudyAdapter" style="stroke:#A80036;stroke-width:1.0;stroke-dasharray:7.0,7.0;"/><polygon fill="#A80036" points="263.5,333.5,254.6301,329.2193,258.5025,333.3429,254.3788,337.2153,263.5,333.5" style="stroke:#A80036;stroke-width:1.0;"/><!--MD5=[ef590c6da89488171f434690b7e65199]
@startuml adapters
interface IMutationCommand {
  start(study, args);
  getInterviewItems(pageSet);
  apply(study, interviewItems);
}

class Study {
  +pageSets
  +pages
  +items
  +wotkflows
  +crossRules
  +update(kwargs: Partial<Study>)
}

class StudyAdapter <<(C, HotPink) Proxy>> {
  +value
  +pageSets
  +pages
  +items
  +wotkflows
  +crossRules
  +start(command, args)
  +getInterviewItems(pageSet)
  +apply(interviewItems)
}

class Patient {
  +patientCode
  +siteCode
  +interviews
  +update(kwargs: Partial<Patient>
}

class PatientAdapter <<(C, HotPink) Proxy>> {
  +patientCode
  +siteCode
  +interviews
  +update(kwargs: Partial<Patient>
}

left to right direction
StudyAdapter *- -> IMutationCommand
StudyAdapter::getInterviewItems ..> IMutationCommand::getInterviewItems
StudyAdapter .l.|> Study 
PatientAdapter .l.|> Patient
PatientAdapter *- -> StudyAdapter
PatientAdapter::interviews ..> StudyAdapter::getInterviewItems
hide IMutationCommand fields
@enduml

PlantUML version 1.2021.8(Sat Jun 26 10:20:59 CEST 2021)
(GPL source distribution)
Java Runtime: OpenJDK Runtime Environment
JVM: OpenJDK 64-Bit Server VM
Default Encoding: Cp1252
Language: en
Country: US
--></g></svg>