<?xml version="1.0" encoding="UTF-8" standalone="no"?><svg xmlns="http://www.w3.org/2000/svg" xmlns:xlink="http://www.w3.org/1999/xlink" contentScriptType="application/ecmascript" contentStyleType="text/css" height="250px" preserveAspectRatio="none" style="width:843px;height:250px;background:#FFFFFF;" version="1.1" viewBox="0 0 843 250" width="843px" zoomAndPan="magnify"><defs><filter height="300%" id="fcqlnifkrq1zo" width="300%" x="-1" y="-1"><feGaussianBlur result="blurOut" stdDeviation="2.0"/><feColorMatrix in="blurOut" result="blurOut2" type="matrix" values="0 0 0 0 0 0 0 0 0 0 0 0 0 0 0 0 0 0 .4 0"/><feOffset dx="4.0" dy="4.0" in="blurOut2" result="blurOut3"/><feBlend in="SourceGraphic" in2="blurOut3" mode="normal"/></filter></defs><g><!--MD5=[80f29dbcbe2236220e59b204657d0953]
class IMutationCommand--><rect codeLine="2" fill="#FEFECE" filter="url(#fcqlnifkrq1zo)" height="32" id="IMutationCommand" style="stroke:#A80036;stroke-width:1.5;" width="141" x="681" y="63"/><ellipse cx="696" cy="79" fill="#B4A7E5" rx="11" ry="11" style="stroke:#A80036;stroke-width:1.0;"/><path d="M696.9531,75.6406 L696.9531,82.2969 L698.6719,82.2969 Q699.2813,82.2969 699.5469,82.5313 Q699.8125,82.7656 699.8125,83.1563 Q699.8125,83.5313 699.5469,83.7656 Q699.2813,84 698.6719,84 L693.5313,84 Q692.9219,84 692.6563,83.7656 Q692.3906,83.5313 692.3906,83.1406 Q692.3906,82.7656 692.6563,82.5313 Q692.9219,82.2969 693.5313,82.2969 L695.25,82.2969 L695.25,75.6406 L693.5313,75.6406 Q692.9219,75.6406 692.6563,75.4063 Q692.3906,75.1719 692.3906,74.7813 Q692.3906,74.4063 692.6563,74.1719 Q692.9219,73.9375 693.5313,73.9375 L698.6719,73.9375 Q699.2813,73.9375 699.5469,74.1719 Q699.8125,74.4063 699.8125,74.7813 Q699.8125,75.1719 699.5469,75.4063 Q699.2813,75.6406 698.6719,75.6406 L696.9531,75.6406 Z " fill="#000000"/><text fill="#000000" font-family="sans-serif" font-size="12" font-style="italic" lengthAdjust="spacing" textLength="109" x="710" y="83.9102">IMutationCommand</text><!--MD5=[1255fc36eafb86bfe53a874538108190]
class StudyAdapter--><rect codeLine="3" fill="#FEFECE" filter="url(#fcqlnifkrq1zo)" height="89.6953" id="StudyAdapter" style="stroke:#A80036;stroke-width:1.5;" width="145" x="400" y="126.5"/><ellipse cx="433.45" cy="146.5938" fill="#FF69B4" rx="11" ry="11" style="stroke:#A80036;stroke-width:1.0;"/><path d="M436.2156,142.4688 Q436.3719,142.25 436.5594,142.1406 Q436.7469,142.0313 436.9656,142.0313 Q437.3406,142.0313 437.575,142.2969 Q437.8094,142.5469 437.8094,143.1563 L437.8094,144.6094 Q437.8094,145.2188 437.575,145.4844 Q437.3406,145.75 436.9656,145.75 Q436.6219,145.75 436.4188,145.5469 Q436.2156,145.3594 436.1063,144.8438 Q436.0594,144.4844 435.8719,144.2969 Q435.5438,143.9219 434.9344,143.7031 Q434.325,143.4844 433.7,143.4844 Q432.9344,143.4844 432.2938,143.8125 Q431.6688,144.1406 431.1688,144.8906 Q430.6844,145.6406 430.6844,146.6719 L430.6844,147.7656 Q430.6844,149 431.575,149.8281 Q432.4656,150.6406 434.0594,150.6406 Q434.9969,150.6406 435.6531,150.3906 Q436.0438,150.2344 436.4656,149.7969 Q436.7313,149.5313 436.8719,149.4531 Q437.0281,149.375 437.2313,149.375 Q437.5594,149.375 437.8094,149.6406 Q438.075,149.8906 438.075,150.2344 Q438.075,150.5781 437.7313,150.9844 Q437.2313,151.5625 436.4344,151.8906 Q435.3563,152.3438 434.0594,152.3438 Q432.5438,152.3438 431.3406,151.7188 Q430.3563,151.2188 429.6688,150.1563 Q428.9813,149.0781 428.9813,147.7969 L428.9813,146.6406 Q428.9813,145.3125 429.5906,144.1719 Q430.2156,143.0156 431.3094,142.4063 Q432.4031,141.7813 433.6375,141.7813 Q434.3719,141.7813 435.0125,141.9531 Q435.6688,142.1094 436.2156,142.4688 Z " fill="#000000"/><text fill="#000000" font-family="sans-serif" font-size="12" font-style="italic" lengthAdjust="spacing" textLength="45" x="465.05" y="143.957">«Proxy»</text><text fill="#000000" font-family="sans-serif" font-size="12" lengthAdjust="spacing" textLength="72" x="451.55" y="159.0508">StudyAdapter</text><line style="stroke:#A80036;stroke-width:1.5;" x1="401" x2="544" y1="166.6875" y2="166.6875"/><text fill="#000000" font-family="sans-serif" font-size="11" lengthAdjust="spacing" textLength="113" x="406" y="182.1064">start(command, ...args)</text><text fill="#000000" font-family="sans-serif" font-size="11" lengthAdjust="spacing" textLength="133" x="406" y="195.9424">getInterviewItems(pageSet)</text><text fill="#000000" font-family="sans-serif" font-size="11" lengthAdjust="spacing" textLength="104" x="406" y="209.7783">apply(interviewItems)</text><!--MD5=[0b9207cc938f9f5d7dcdd4f208bb5239]
class PatientAdapter--><rect codeLine="8" fill="#FEFECE" filter="url(#fcqlnifkrq1zo)" height="62.0234" id="PatientAdapter" style="stroke:#A80036;stroke-width:1.5;" width="112" x="31" y="78.5"/><ellipse cx="46" cy="98.5938" fill="#FF69B4" rx="11" ry="11" style="stroke:#A80036;stroke-width:1.0;"/><path d="M48.7656,94.4688 Q48.9219,94.25 49.1094,94.1406 Q49.2969,94.0313 49.5156,94.0313 Q49.8906,94.0313 50.125,94.2969 Q50.3594,94.5469 50.3594,95.1563 L50.3594,96.6094 Q50.3594,97.2188 50.125,97.4844 Q49.8906,97.75 49.5156,97.75 Q49.1719,97.75 48.9688,97.5469 Q48.7656,97.3594 48.6563,96.8438 Q48.6094,96.4844 48.4219,96.2969 Q48.0938,95.9219 47.4844,95.7031 Q46.875,95.4844 46.25,95.4844 Q45.4844,95.4844 44.8438,95.8125 Q44.2188,96.1406 43.7188,96.8906 Q43.2344,97.6406 43.2344,98.6719 L43.2344,99.7656 Q43.2344,101 44.125,101.8281 Q45.0156,102.6406 46.6094,102.6406 Q47.5469,102.6406 48.2031,102.3906 Q48.5938,102.2344 49.0156,101.7969 Q49.2813,101.5313 49.4219,101.4531 Q49.5781,101.375 49.7813,101.375 Q50.1094,101.375 50.3594,101.6406 Q50.625,101.8906 50.625,102.2344 Q50.625,102.5781 50.2813,102.9844 Q49.7813,103.5625 48.9844,103.8906 Q47.9063,104.3438 46.6094,104.3438 Q45.0938,104.3438 43.8906,103.7188 Q42.9063,103.2188 42.2188,102.1563 Q41.5313,101.0781 41.5313,99.7969 L41.5313,98.6406 Q41.5313,97.3125 42.1406,96.1719 Q42.7656,95.0156 43.8594,94.4063 Q44.9531,93.7813 46.1875,93.7813 Q46.9219,93.7813 47.5625,93.9531 Q48.2188,94.1094 48.7656,94.4688 Z " fill="#000000"/><text fill="#000000" font-family="sans-serif" font-size="12" font-style="italic" lengthAdjust="spacing" textLength="45" x="77.5" y="95.957">«Proxy»</text><text fill="#000000" font-family="sans-serif" font-size="12" lengthAdjust="spacing" textLength="80" x="60" y="111.0508">PatientAdapter</text><line style="stroke:#A80036;stroke-width:1.5;" x1="32" x2="142" y1="118.6875" y2="118.6875"/><text fill="#000000" font-family="sans-serif" font-size="11" lengthAdjust="spacing" textLength="51" x="37" y="134.1064">interviews</text><!--MD5=[42e051526855f1b58eca2ca2a9fbc8a1]
class UpdateItemCommand--><rect codeLine="11" fill="#FEFECE" filter="url(#fcqlnifkrq1zo)" height="81.5078" id="UpdateItemCommand" style="stroke:#A80036;stroke-width:1.5;" width="155" x="674" y="134.5"/><ellipse cx="689" cy="150.5" fill="#ADD1B2" rx="11" ry="11" style="stroke:#A80036;stroke-width:1.0;"/><path d="M691.7656,146.375 Q691.9219,146.1563 692.1094,146.0469 Q692.2969,145.9375 692.5156,145.9375 Q692.8906,145.9375 693.125,146.2031 Q693.3594,146.4531 693.3594,147.0625 L693.3594,148.5156 Q693.3594,149.125 693.125,149.3906 Q692.8906,149.6563 692.5156,149.6563 Q692.1719,149.6563 691.9688,149.4531 Q691.7656,149.2656 691.6563,148.75 Q691.6094,148.3906 691.4219,148.2031 Q691.0938,147.8281 690.4844,147.6094 Q689.875,147.3906 689.25,147.3906 Q688.4844,147.3906 687.8438,147.7188 Q687.2188,148.0469 686.7188,148.7969 Q686.2344,149.5469 686.2344,150.5781 L686.2344,151.6719 Q686.2344,152.9063 687.125,153.7344 Q688.0156,154.5469 689.6094,154.5469 Q690.5469,154.5469 691.2031,154.2969 Q691.5938,154.1406 692.0156,153.7031 Q692.2813,153.4375 692.4219,153.3594 Q692.5781,153.2813 692.7813,153.2813 Q693.1094,153.2813 693.3594,153.5469 Q693.625,153.7969 693.625,154.1406 Q693.625,154.4844 693.2813,154.8906 Q692.7813,155.4688 691.9844,155.7969 Q690.9063,156.25 689.6094,156.25 Q688.0938,156.25 686.8906,155.625 Q685.9063,155.125 685.2188,154.0625 Q684.5313,152.9844 684.5313,151.7031 L684.5313,150.5469 Q684.5313,149.2188 685.1406,148.0781 Q685.7656,146.9219 686.8594,146.3125 Q687.9531,145.6875 689.1875,145.6875 Q689.9219,145.6875 690.5625,145.8594 Q691.2188,146.0156 691.7656,146.375 Z " fill="#000000"/><text fill="#000000" font-family="sans-serif" font-size="12" lengthAdjust="spacing" textLength="123" x="703" y="155.4102">UpdateItemCommand</text><line style="stroke:#A80036;stroke-width:1.5;" x1="675" x2="828" y1="166.5" y2="166.5"/><text fill="#000000" font-family="sans-serif" font-size="11" lengthAdjust="spacing" textLength="119" x="680" y="181.9189">start(study, page, index)</text><text fill="#000000" font-family="sans-serif" font-size="11" lengthAdjust="spacing" textLength="133" x="680" y="195.7549">getInterviewItems(pageSet)</text><text fill="#000000" font-family="sans-serif" font-size="11" lengthAdjust="spacing" textLength="137" x="680" y="209.5908">apply(study, interviewItems)</text><!--MD5=[96494ea2696cf7f1c80dd97018f75d77]
class InterviewStudioDriver--><rect codeLine="16" fill="#FEFECE" filter="url(#fcqlnifkrq1zo)" height="53.8359" id="InterviewStudioDriver" style="stroke:#A80036;stroke-width:1.5;" width="160" x="7" y="182.5"/><ellipse cx="27.85" cy="198.5" fill="#ADD1B2" rx="11" ry="11" style="stroke:#A80036;stroke-width:1.0;"/><path d="M30.6156,194.375 Q30.7719,194.1563 30.9594,194.0469 Q31.1469,193.9375 31.3656,193.9375 Q31.7406,193.9375 31.975,194.2031 Q32.2094,194.4531 32.2094,195.0625 L32.2094,196.5156 Q32.2094,197.125 31.975,197.3906 Q31.7406,197.6563 31.3656,197.6563 Q31.0219,197.6563 30.8188,197.4531 Q30.6156,197.2656 30.5063,196.75 Q30.4594,196.3906 30.2719,196.2031 Q29.9438,195.8281 29.3344,195.6094 Q28.725,195.3906 28.1,195.3906 Q27.3344,195.3906 26.6938,195.7188 Q26.0688,196.0469 25.5688,196.7969 Q25.0844,197.5469 25.0844,198.5781 L25.0844,199.6719 Q25.0844,200.9063 25.975,201.7344 Q26.8656,202.5469 28.4594,202.5469 Q29.3969,202.5469 30.0531,202.2969 Q30.4438,202.1406 30.8656,201.7031 Q31.1313,201.4375 31.2719,201.3594 Q31.4281,201.2813 31.6313,201.2813 Q31.9594,201.2813 32.2094,201.5469 Q32.475,201.7969 32.475,202.1406 Q32.475,202.4844 32.1313,202.8906 Q31.6313,203.4688 30.8344,203.7969 Q29.7563,204.25 28.4594,204.25 Q26.9438,204.25 25.7406,203.625 Q24.7563,203.125 24.0688,202.0625 Q23.3813,200.9844 23.3813,199.7031 L23.3813,198.5469 Q23.3813,197.2188 23.9906,196.0781 Q24.6156,194.9219 25.7094,194.3125 Q26.8031,193.6875 28.0375,193.6875 Q28.7719,193.6875 29.4125,193.8594 Q30.0688,194.0156 30.6156,194.375 Z " fill="#000000"/><text fill="#000000" font-family="sans-serif" font-size="12" lengthAdjust="spacing" textLength="115" x="43.15" y="203.4102">InterviewStudioDriver</text><line style="stroke:#A80036;stroke-width:1.5;" x1="8" x2="166" y1="214.5" y2="214.5"/><text fill="#000000" font-family="sans-serif" font-size="11" lengthAdjust="spacing" textLength="148" x="13" y="229.9189">save(study, patient, interview)</text><!--MD5=[03ed64765f9fa2a59a9d580eaab5ffbd]
class PatientStudioDriver--><rect fill="#FEFECE" filter="url(#fcqlnifkrq1zo)" height="32" id="PatientStudioDriver" style="stroke:#A80036;stroke-width:1.5;" width="137" x="18.5" y="7"/><ellipse cx="33.5" cy="23" fill="#ADD1B2" rx="11" ry="11" style="stroke:#A80036;stroke-width:1.0;"/><path d="M36.2656,18.875 Q36.4219,18.6563 36.6094,18.5469 Q36.7969,18.4375 37.0156,18.4375 Q37.3906,18.4375 37.625,18.7031 Q37.8594,18.9531 37.8594,19.5625 L37.8594,21.0156 Q37.8594,21.625 37.625,21.8906 Q37.3906,22.1563 37.0156,22.1563 Q36.6719,22.1563 36.4688,21.9531 Q36.2656,21.7656 36.1563,21.25 Q36.1094,20.8906 35.9219,20.7031 Q35.5938,20.3281 34.9844,20.1094 Q34.375,19.8906 33.75,19.8906 Q32.9844,19.8906 32.3438,20.2188 Q31.7188,20.5469 31.2188,21.2969 Q30.7344,22.0469 30.7344,23.0781 L30.7344,24.1719 Q30.7344,25.4063 31.625,26.2344 Q32.5156,27.0469 34.1094,27.0469 Q35.0469,27.0469 35.7031,26.7969 Q36.0938,26.6406 36.5156,26.2031 Q36.7813,25.9375 36.9219,25.8594 Q37.0781,25.7813 37.2813,25.7813 Q37.6094,25.7813 37.8594,26.0469 Q38.125,26.2969 38.125,26.6406 Q38.125,26.9844 37.7813,27.3906 Q37.2813,27.9688 36.4844,28.2969 Q35.4063,28.75 34.1094,28.75 Q32.5938,28.75 31.3906,28.125 Q30.4063,27.625 29.7188,26.5625 Q29.0313,25.4844 29.0313,24.2031 L29.0313,23.0469 Q29.0313,21.7188 29.6406,20.5781 Q30.2656,19.4219 31.3594,18.8125 Q32.4531,18.1875 33.6875,18.1875 Q34.4219,18.1875 35.0625,18.3594 Q35.7188,18.5156 36.2656,18.875 Z " fill="#000000"/><text fill="#000000" font-family="sans-serif" font-size="12" lengthAdjust="spacing" textLength="105" x="47.5" y="27.9102">PatientStudioDriver</text><!--MD5=[60ec5e2f84fe439e1a57817d81ab0d90]
class StudyStudioDriver--><rect fill="#FEFECE" filter="url(#fcqlnifkrq1zo)" height="32" id="StudyStudioDriver" style="stroke:#A80036;stroke-width:1.5;" width="129" x="408" y="55"/><ellipse cx="423" cy="71" fill="#ADD1B2" rx="11" ry="11" style="stroke:#A80036;stroke-width:1.0;"/><path d="M425.7656,66.875 Q425.9219,66.6563 426.1094,66.5469 Q426.2969,66.4375 426.5156,66.4375 Q426.8906,66.4375 427.125,66.7031 Q427.3594,66.9531 427.3594,67.5625 L427.3594,69.0156 Q427.3594,69.625 427.125,69.8906 Q426.8906,70.1563 426.5156,70.1563 Q426.1719,70.1563 425.9688,69.9531 Q425.7656,69.7656 425.6563,69.25 Q425.6094,68.8906 425.4219,68.7031 Q425.0938,68.3281 424.4844,68.1094 Q423.875,67.8906 423.25,67.8906 Q422.4844,67.8906 421.8438,68.2188 Q421.2188,68.5469 420.7188,69.2969 Q420.2344,70.0469 420.2344,71.0781 L420.2344,72.1719 Q420.2344,73.4063 421.125,74.2344 Q422.0156,75.0469 423.6094,75.0469 Q424.5469,75.0469 425.2031,74.7969 Q425.5938,74.6406 426.0156,74.2031 Q426.2813,73.9375 426.4219,73.8594 Q426.5781,73.7813 426.7813,73.7813 Q427.1094,73.7813 427.3594,74.0469 Q427.625,74.2969 427.625,74.6406 Q427.625,74.9844 427.2813,75.3906 Q426.7813,75.9688 425.9844,76.2969 Q424.9063,76.75 423.6094,76.75 Q422.0938,76.75 420.8906,76.125 Q419.9063,75.625 419.2188,74.5625 Q418.5313,73.4844 418.5313,72.2031 L418.5313,71.0469 Q418.5313,69.7188 419.1406,68.5781 Q419.7656,67.4219 420.8594,66.8125 Q421.9531,66.1875 423.1875,66.1875 Q423.9219,66.1875 424.5625,66.3594 Q425.2188,66.5156 425.7656,66.875 Z " fill="#000000"/><text fill="#000000" font-family="sans-serif" font-size="12" lengthAdjust="spacing" textLength="97" x="437" y="75.9102">StudyStudioDriver</text><!--MD5=[8624fd93e54c42cea57445143d2f6b57]
link PatientStudioDriver to PatientAdapter--><path codeLine="21" d="M87,39.06 C87,49.09 87,59.12 87,69.15 " fill="none" id="PatientStudioDriver-to-PatientAdapter" style="stroke:#A80036;stroke-width:1.0;"/><polygon fill="#A80036" points="87,74.4,91,65.4,87,69.4,83,65.4,87,74.4" style="stroke:#A80036;stroke-width:1.0;"/><!--MD5=[56ebd359e20d05971b17ef30b0fcfcde]
link StudyStudioDriver to StudyAdapter--><path codeLine="22" d="M472.5,87.07 C472.5,97.11 472.5,107.15 472.5,117.18 " fill="none" id="StudyStudioDriver-to-StudyAdapter" style="stroke:#A80036;stroke-width:1.0;"/><polygon fill="#A80036" points="472.5,122.43,476.5,113.43,472.5,117.43,468.5,113.43,472.5,122.43" style="stroke:#A80036;stroke-width:1.0;"/><!--MD5=[54942c567f79c14c08986f4938f64c7c]
link StudyAdapter to UpdateItemCommand--><path codeLine="23" d="M546.5,178 C601.18,178 616.13,178 668.33,178 " fill="none" id="StudyAdapter-to-UpdateItemCommand" style="stroke:#A80036;stroke-width:1.0;stroke-dasharray:7.0,7.0;"/><polygon fill="#A80036" points="673.5,178,664.5,174,668.5,178,664.5,182,673.5,178" style="stroke:#A80036;stroke-width:1.0;"/><text fill="#000000" font-family="sans-serif" font-size="13" lengthAdjust="spacing" textLength="46" x="586.5" y="173.4951">start(...)</text><!--MD5=[54942c567f79c14c08986f4938f64c7c]
link StudyAdapter to UpdateItemCommand--><path codeLine="24" d="M546.5,204 C601.18,204 616.13,204 668.33,204 " fill="none" id="StudyAdapter-to-UpdateItemCommand-1" style="stroke:#A80036;stroke-width:1.0;stroke-dasharray:7.0,7.0;"/><polygon fill="#A80036" points="673.5,204,664.5,200,668.5,204,664.5,208,673.5,204" style="stroke:#A80036;stroke-width:1.0;"/><text fill="#000000" font-family="sans-serif" font-size="13" lengthAdjust="spacing" textLength="51" x="584" y="200.4951">apply(...)</text><!--MD5=[9bb6f2952a2de66c590c1980bd268458]
link PatientAdapter to StudyAdapter--><path codeLine="25" d="M144,130 C200.66,130 333.07,187.48 394.17,190.85 " fill="none" id="PatientAdapter-to-StudyAdapter" style="stroke:#A80036;stroke-width:1.0;stroke-dasharray:7.0,7.0;"/><polygon fill="#A80036" points="399.5,191,390.6183,186.7439,394.5021,190.8568,390.3891,194.7406,399.5,191" style="stroke:#A80036;stroke-width:1.0;"/><text fill="#000000" font-family="sans-serif" font-size="13" lengthAdjust="spacing" textLength="155" x="206" y="138.4951">getInterviewItems(pageSet)</text><!--MD5=[369aea8c55443ac3e2fa8cd6b5a2c62f]
link InterviewStudioDriver to StudyAdapter--><path codeLine="26" d="M168,226 C254.51,226 276.11,220.4 362,210 C376.92,208.19 381.62,204.85 394.39,204.13 " fill="none" id="InterviewStudioDriver-to-StudyAdapter" style="stroke:#A80036;stroke-width:1.0;stroke-dasharray:7.0,7.0;"/><polygon fill="#A80036" points="399.5,204,390.4002,200.2327,394.5017,204.1285,390.6058,208.23,399.5,204" style="stroke:#A80036;stroke-width:1.0;"/><text fill="#000000" font-family="sans-serif" font-size="13" lengthAdjust="spacing" textLength="120" x="223.5" y="206.4951">apply(interviewItems)</text><!--MD5=[526fb8940bc2518812f4d2c15233ff0b]
reverse link IMutationCommand to UpdateItemCommand--><path codeLine="27" d="M751.5,115.08 C751.5,120.13 751.5,125.17 751.5,130.21 " fill="none" id="IMutationCommand-backto-UpdateItemCommand" style="stroke:#A80036;stroke-width:1.0;stroke-dasharray:7.0,7.0;"/><polygon fill="none" points="744.5,115,751.5,95,758.5,115,744.5,115" style="stroke:#A80036;stroke-width:1.0;"/><!--MD5=[7b94d29abc94bb1ce3ee508272a7ad45]
@startuml drivers

interface IMutationCommand
class StudyAdapter <<(C, HotPink) Proxy>> {
  start(command, ...args)
  getInterviewItems(pageSet)
  apply(interviewItems)
}
class PatientAdapter <<(C, HotPink) Proxy>> {
  interviews
}
class UpdateItemCommand {
  start(study, page, index)
  getInterviewItems(pageSet)
  apply(study, interviewItems)
}
class InterviewStudioDriver {
  save(study, patient, interview)
}

left to right direction
PatientStudioDriver -> PatientAdapter
StudyStudioDriver -> StudyAdapter
StudyAdapter::start ..> UpdateItemCommand::start : start(...)
StudyAdapter::apply ..> UpdateItemCommand::apply : apply(...)
PatientAdapter::interviews ..> StudyAdapter::getInterviewItems : getInterviewItems(pageSet)
InterviewStudioDriver::save ..> StudyAdapter::apply : apply(interviewItems)
UpdateItemCommand .u|> IMutationCommand

hide members
show UpdateItemCommand methods
show StudyAdapter methods
show PatientAdapter fields
show InterviewStudioDriver methods
@enduml

PlantUML version 1.2021.8(Sat Jun 26 10:20:59 CEST 2021)
(GPL source distribution)
Java Runtime: OpenJDK Runtime Environment
JVM: OpenJDK 64-Bit Server VM
Default Encoding: Cp1252
Language: en
Country: US
--></g></svg>