<?xml version="1.0" encoding="UTF-8" standalone="no"?><svg xmlns="http://www.w3.org/2000/svg" xmlns:xlink="http://www.w3.org/1999/xlink" contentScriptType="application/ecmascript" contentStyleType="text/css" height="331px" preserveAspectRatio="none" style="width:634px;height:331px;background:#FFFFFF;" version="1.1" viewBox="0 0 634 331" width="634px" zoomAndPan="magnify"><defs><filter height="300%" id="f13vbra914kkcg" width="300%" x="-1" y="-1"><feGaussianBlur result="blurOut" stdDeviation="2.0"/><feColorMatrix in="blurOut" result="blurOut2" type="matrix" values="0 0 0 0 0 0 0 0 0 0 0 0 0 0 0 0 0 0 .4 0"/><feOffset dx="4.0" dy="4.0" in="blurOut2" result="blurOut3"/><feBlend in="SourceGraphic" in2="blurOut3" mode="normal"/></filter></defs><g><!--MD5=[f4aa5176ec98302d75f1e1cb555e18b9]
class StudioDrivers--><rect codeLine="2" fill="#FEFECE" filter="url(#f13vbra914kkcg)" height="32" id="StudioDrivers" style="stroke:#A80036;stroke-width:1.5;" width="106" x="150.47" y="7"/><ellipse cx="165.47" cy="23" fill="#ADD1B2" rx="11" ry="11" style="stroke:#A80036;stroke-width:1.0;"/><path d="M168.2356,18.875 Q168.3919,18.6563 168.5794,18.5469 Q168.7669,18.4375 168.9856,18.4375 Q169.3606,18.4375 169.595,18.7031 Q169.8294,18.9531 169.8294,19.5625 L169.8294,21.0156 Q169.8294,21.625 169.595,21.8906 Q169.3606,22.1563 168.9856,22.1563 Q168.6419,22.1563 168.4388,21.9531 Q168.2356,21.7656 168.1263,21.25 Q168.0794,20.8906 167.8919,20.7031 Q167.5638,20.3281 166.9544,20.1094 Q166.345,19.8906 165.72,19.8906 Q164.9544,19.8906 164.3138,20.2188 Q163.6888,20.5469 163.1888,21.2969 Q162.7044,22.0469 162.7044,23.0781 L162.7044,24.1719 Q162.7044,25.4063 163.595,26.2344 Q164.4856,27.0469 166.0794,27.0469 Q167.0169,27.0469 167.6731,26.7969 Q168.0638,26.6406 168.4856,26.2031 Q168.7513,25.9375 168.8919,25.8594 Q169.0481,25.7813 169.2513,25.7813 Q169.5794,25.7813 169.8294,26.0469 Q170.095,26.2969 170.095,26.6406 Q170.095,26.9844 169.7513,27.3906 Q169.2513,27.9688 168.4544,28.2969 Q167.3763,28.75 166.0794,28.75 Q164.5638,28.75 163.3606,28.125 Q162.3763,27.625 161.6888,26.5625 Q161.0013,25.4844 161.0013,24.2031 L161.0013,23.0469 Q161.0013,21.7188 161.6106,20.5781 Q162.2356,19.4219 163.3294,18.8125 Q164.4231,18.1875 165.6575,18.1875 Q166.3919,18.1875 167.0325,18.3594 Q167.6888,18.5156 168.2356,18.875 Z " fill="#000000"/><text fill="#000000" font-family="sans-serif" font-size="12" lengthAdjust="spacing" textLength="74" x="179.47" y="27.9102">StudioDrivers</text><!--MD5=[9db02e316073c1ff5022e8ac06127109]
class ClientDrivers--><rect codeLine="3" fill="#FEFECE" filter="url(#f13vbra914kkcg)" height="32" id="ClientDrivers" style="stroke:#A80036;stroke-width:1.5;" width="103" x="482.47" y="7"/><ellipse cx="497.47" cy="23" fill="#ADD1B2" rx="11" ry="11" style="stroke:#A80036;stroke-width:1.0;"/><path d="M500.2356,18.875 Q500.3919,18.6563 500.5794,18.5469 Q500.7669,18.4375 500.9856,18.4375 Q501.3606,18.4375 501.595,18.7031 Q501.8294,18.9531 501.8294,19.5625 L501.8294,21.0156 Q501.8294,21.625 501.595,21.8906 Q501.3606,22.1563 500.9856,22.1563 Q500.6419,22.1563 500.4388,21.9531 Q500.2356,21.7656 500.1263,21.25 Q500.0794,20.8906 499.8919,20.7031 Q499.5638,20.3281 498.9544,20.1094 Q498.345,19.8906 497.72,19.8906 Q496.9544,19.8906 496.3138,20.2188 Q495.6888,20.5469 495.1888,21.2969 Q494.7044,22.0469 494.7044,23.0781 L494.7044,24.1719 Q494.7044,25.4063 495.595,26.2344 Q496.4856,27.0469 498.0794,27.0469 Q499.0169,27.0469 499.6731,26.7969 Q500.0638,26.6406 500.4856,26.2031 Q500.7513,25.9375 500.8919,25.8594 Q501.0481,25.7813 501.2513,25.7813 Q501.5794,25.7813 501.8294,26.0469 Q502.095,26.2969 502.095,26.6406 Q502.095,26.9844 501.7513,27.3906 Q501.2513,27.9688 500.4544,28.2969 Q499.3763,28.75 498.0794,28.75 Q496.5638,28.75 495.3606,28.125 Q494.3763,27.625 493.6888,26.5625 Q493.0013,25.4844 493.0013,24.2031 L493.0013,23.0469 Q493.0013,21.7188 493.6106,20.5781 Q494.2356,19.4219 495.3294,18.8125 Q496.4231,18.1875 497.6575,18.1875 Q498.3919,18.1875 499.0325,18.3594 Q499.6888,18.5156 500.2356,18.875 Z " fill="#000000"/><text fill="#000000" font-family="sans-serif" font-size="12" lengthAdjust="spacing" textLength="71" x="511.47" y="27.9102">ClientDrivers</text><!--MD5=[60ec5e2f84fe439e1a57817d81ab0d90]
class StudyStudioDriver--><rect codeLine="6" fill="#FEFECE" filter="url(#f13vbra914kkcg)" height="53.8359" id="StudyStudioDriver" style="stroke:#A80036;stroke-width:1.5;" width="129" x="138.97" y="99.5"/><ellipse cx="153.97" cy="115.5" fill="#ADD1B2" rx="11" ry="11" style="stroke:#A80036;stroke-width:1.0;"/><path d="M156.7356,111.375 Q156.8919,111.1563 157.0794,111.0469 Q157.2669,110.9375 157.4856,110.9375 Q157.8606,110.9375 158.095,111.2031 Q158.3294,111.4531 158.3294,112.0625 L158.3294,113.5156 Q158.3294,114.125 158.095,114.3906 Q157.8606,114.6563 157.4856,114.6563 Q157.1419,114.6563 156.9388,114.4531 Q156.7356,114.2656 156.6263,113.75 Q156.5794,113.3906 156.3919,113.2031 Q156.0638,112.8281 155.4544,112.6094 Q154.845,112.3906 154.22,112.3906 Q153.4544,112.3906 152.8138,112.7188 Q152.1888,113.0469 151.6888,113.7969 Q151.2044,114.5469 151.2044,115.5781 L151.2044,116.6719 Q151.2044,117.9063 152.095,118.7344 Q152.9856,119.5469 154.5794,119.5469 Q155.5169,119.5469 156.1731,119.2969 Q156.5638,119.1406 156.9856,118.7031 Q157.2513,118.4375 157.3919,118.3594 Q157.5481,118.2813 157.7513,118.2813 Q158.0794,118.2813 158.3294,118.5469 Q158.595,118.7969 158.595,119.1406 Q158.595,119.4844 158.2513,119.8906 Q157.7513,120.4688 156.9544,120.7969 Q155.8763,121.25 154.5794,121.25 Q153.0638,121.25 151.8606,120.625 Q150.8763,120.125 150.1888,119.0625 Q149.5013,117.9844 149.5013,116.7031 L149.5013,115.5469 Q149.5013,114.2188 150.1106,113.0781 Q150.7356,111.9219 151.8294,111.3125 Q152.9231,110.6875 154.1575,110.6875 Q154.8919,110.6875 155.5325,110.8594 Q156.1888,111.0156 156.7356,111.375 Z " fill="#000000"/><text fill="#000000" font-family="sans-serif" font-size="12" lengthAdjust="spacing" textLength="97" x="167.97" y="120.4102">StudyStudioDriver</text><line style="stroke:#A80036;stroke-width:1.5;" x1="139.97" x2="266.97" y1="131.5" y2="131.5"/><ellipse cx="149.97" cy="142.5" fill="#84BE84" rx="3" ry="3" style="stroke:#038048;stroke-width:1.0;"/><text fill="#000000" font-family="sans-serif" font-size="11" lengthAdjust="spacing" textLength="98" x="158.97" y="146.9189">save(studyAdapter)</text><!--MD5=[03ed64765f9fa2a59a9d580eaab5ffbd]
class PatientStudioDriver--><rect codeLine="9" fill="#FEFECE" filter="url(#f13vbra914kkcg)" height="32" id="PatientStudioDriver" style="stroke:#A80036;stroke-width:1.5;" width="137" x="134.97" y="192"/><ellipse cx="149.97" cy="208" fill="#ADD1B2" rx="11" ry="11" style="stroke:#A80036;stroke-width:1.0;"/><path d="M152.7356,203.875 Q152.8919,203.6563 153.0794,203.5469 Q153.2669,203.4375 153.4856,203.4375 Q153.8606,203.4375 154.095,203.7031 Q154.3294,203.9531 154.3294,204.5625 L154.3294,206.0156 Q154.3294,206.625 154.095,206.8906 Q153.8606,207.1563 153.4856,207.1563 Q153.1419,207.1563 152.9388,206.9531 Q152.7356,206.7656 152.6263,206.25 Q152.5794,205.8906 152.3919,205.7031 Q152.0638,205.3281 151.4544,205.1094 Q150.845,204.8906 150.22,204.8906 Q149.4544,204.8906 148.8138,205.2188 Q148.1888,205.5469 147.6888,206.2969 Q147.2044,207.0469 147.2044,208.0781 L147.2044,209.1719 Q147.2044,210.4063 148.095,211.2344 Q148.9856,212.0469 150.5794,212.0469 Q151.5169,212.0469 152.1731,211.7969 Q152.5638,211.6406 152.9856,211.2031 Q153.2513,210.9375 153.3919,210.8594 Q153.5481,210.7813 153.7513,210.7813 Q154.0794,210.7813 154.3294,211.0469 Q154.595,211.2969 154.595,211.6406 Q154.595,211.9844 154.2513,212.3906 Q153.7513,212.9688 152.9544,213.2969 Q151.8763,213.75 150.5794,213.75 Q149.0638,213.75 147.8606,213.125 Q146.8763,212.625 146.1888,211.5625 Q145.5013,210.4844 145.5013,209.2031 L145.5013,208.0469 Q145.5013,206.7188 146.1106,205.5781 Q146.7356,204.4219 147.8294,203.8125 Q148.9231,203.1875 150.1575,203.1875 Q150.8919,203.1875 151.5325,203.3594 Q152.1888,203.5156 152.7356,203.875 Z " fill="#000000"/><text fill="#000000" font-family="sans-serif" font-size="12" lengthAdjust="spacing" textLength="105" x="163.97" y="212.9102">PatientStudioDriver</text><!--MD5=[96494ea2696cf7f1c80dd97018f75d77]
class InterviewStudioDriver--><rect codeLine="10" fill="#FEFECE" filter="url(#f13vbra914kkcg)" height="53.8359" id="InterviewStudioDriver" style="stroke:#A80036;stroke-width:1.5;" width="213" x="96.97" y="263.5"/><ellipse cx="141.72" cy="279.5" fill="#ADD1B2" rx="11" ry="11" style="stroke:#A80036;stroke-width:1.0;"/><path d="M144.4856,275.375 Q144.6419,275.1563 144.8294,275.0469 Q145.0169,274.9375 145.2356,274.9375 Q145.6106,274.9375 145.845,275.2031 Q146.0794,275.4531 146.0794,276.0625 L146.0794,277.5156 Q146.0794,278.125 145.845,278.3906 Q145.6106,278.6563 145.2356,278.6563 Q144.8919,278.6563 144.6888,278.4531 Q144.4856,278.2656 144.3763,277.75 Q144.3294,277.3906 144.1419,277.2031 Q143.8138,276.8281 143.2044,276.6094 Q142.595,276.3906 141.97,276.3906 Q141.2044,276.3906 140.5638,276.7188 Q139.9388,277.0469 139.4388,277.7969 Q138.9544,278.5469 138.9544,279.5781 L138.9544,280.6719 Q138.9544,281.9063 139.845,282.7344 Q140.7356,283.5469 142.3294,283.5469 Q143.2669,283.5469 143.9231,283.2969 Q144.3138,283.1406 144.7356,282.7031 Q145.0013,282.4375 145.1419,282.3594 Q145.2981,282.2813 145.5013,282.2813 Q145.8294,282.2813 146.0794,282.5469 Q146.345,282.7969 146.345,283.1406 Q146.345,283.4844 146.0013,283.8906 Q145.5013,284.4688 144.7044,284.7969 Q143.6263,285.25 142.3294,285.25 Q140.8138,285.25 139.6106,284.625 Q138.6263,284.125 137.9388,283.0625 Q137.2513,281.9844 137.2513,280.7031 L137.2513,279.5469 Q137.2513,278.2188 137.8606,277.0781 Q138.4856,275.9219 139.5794,275.3125 Q140.6731,274.6875 141.9075,274.6875 Q142.6419,274.6875 143.2825,274.8594 Q143.9388,275.0156 144.4856,275.375 Z " fill="#000000"/><text fill="#000000" font-family="sans-serif" font-size="12" lengthAdjust="spacing" textLength="115" x="162.22" y="284.4102">InterviewStudioDriver</text><line style="stroke:#A80036;stroke-width:1.5;" x1="97.97" x2="308.97" y1="295.5" y2="295.5"/><ellipse cx="107.97" cy="306.5" fill="#84BE84" rx="3" ry="3" style="stroke:#038048;stroke-width:1.0;"/><text fill="#000000" font-family="sans-serif" font-size="11" lengthAdjust="spacing" textLength="187" x="116.97" y="310.9189">save(studyAdapter, patient, interview)</text><!--MD5=[03d42565668622fba6f4ee40a0ebb99e]
class StudyClientDriver--><rect codeLine="15" fill="#FEFECE" filter="url(#f13vbra914kkcg)" height="53.8359" id="StudyClientDriver" style="stroke:#A80036;stroke-width:1.5;" width="126" x="470.97" y="99.5"/><ellipse cx="485.97" cy="115.5" fill="#ADD1B2" rx="11" ry="11" style="stroke:#A80036;stroke-width:1.0;"/><path d="M488.7356,111.375 Q488.8919,111.1563 489.0794,111.0469 Q489.2669,110.9375 489.4856,110.9375 Q489.8606,110.9375 490.095,111.2031 Q490.3294,111.4531 490.3294,112.0625 L490.3294,113.5156 Q490.3294,114.125 490.095,114.3906 Q489.8606,114.6563 489.4856,114.6563 Q489.1419,114.6563 488.9388,114.4531 Q488.7356,114.2656 488.6263,113.75 Q488.5794,113.3906 488.3919,113.2031 Q488.0638,112.8281 487.4544,112.6094 Q486.845,112.3906 486.22,112.3906 Q485.4544,112.3906 484.8138,112.7188 Q484.1888,113.0469 483.6888,113.7969 Q483.2044,114.5469 483.2044,115.5781 L483.2044,116.6719 Q483.2044,117.9063 484.095,118.7344 Q484.9856,119.5469 486.5794,119.5469 Q487.5169,119.5469 488.1731,119.2969 Q488.5638,119.1406 488.9856,118.7031 Q489.2513,118.4375 489.3919,118.3594 Q489.5481,118.2813 489.7513,118.2813 Q490.0794,118.2813 490.3294,118.5469 Q490.595,118.7969 490.595,119.1406 Q490.595,119.4844 490.2513,119.8906 Q489.7513,120.4688 488.9544,120.7969 Q487.8763,121.25 486.5794,121.25 Q485.0638,121.25 483.8606,120.625 Q482.8763,120.125 482.1888,119.0625 Q481.5013,117.9844 481.5013,116.7031 L481.5013,115.5469 Q481.5013,114.2188 482.1106,113.0781 Q482.7356,111.9219 483.8294,111.3125 Q484.9231,110.6875 486.1575,110.6875 Q486.8919,110.6875 487.5325,110.8594 Q488.1888,111.0156 488.7356,111.375 Z " fill="#000000"/><text fill="#000000" font-family="sans-serif" font-size="12" lengthAdjust="spacing" textLength="94" x="499.97" y="120.4102">StudyClientDriver</text><line style="stroke:#A80036;stroke-width:1.5;" x1="471.97" x2="595.97" y1="131.5" y2="131.5"/><ellipse cx="481.97" cy="142.5" fill="#84BE84" rx="3" ry="3" style="stroke:#038048;stroke-width:1.0;"/><text fill="#000000" font-family="sans-serif" font-size="11" lengthAdjust="spacing" textLength="98" x="490.97" y="146.9189">save(studyAdapter)</text><!--MD5=[57c2c06917ceaf18a1f8ce2fb8c1cd98]
class PatientClientDriver--><rect codeLine="18" fill="#FEFECE" filter="url(#f13vbra914kkcg)" height="32" id="PatientClientDriver" style="stroke:#A80036;stroke-width:1.5;" width="134" x="466.97" y="192"/><ellipse cx="481.97" cy="208" fill="#ADD1B2" rx="11" ry="11" style="stroke:#A80036;stroke-width:1.0;"/><path d="M484.7356,203.875 Q484.8919,203.6563 485.0794,203.5469 Q485.2669,203.4375 485.4856,203.4375 Q485.8606,203.4375 486.095,203.7031 Q486.3294,203.9531 486.3294,204.5625 L486.3294,206.0156 Q486.3294,206.625 486.095,206.8906 Q485.8606,207.1563 485.4856,207.1563 Q485.1419,207.1563 484.9388,206.9531 Q484.7356,206.7656 484.6263,206.25 Q484.5794,205.8906 484.3919,205.7031 Q484.0638,205.3281 483.4544,205.1094 Q482.845,204.8906 482.22,204.8906 Q481.4544,204.8906 480.8138,205.2188 Q480.1888,205.5469 479.6888,206.2969 Q479.2044,207.0469 479.2044,208.0781 L479.2044,209.1719 Q479.2044,210.4063 480.095,211.2344 Q480.9856,212.0469 482.5794,212.0469 Q483.5169,212.0469 484.1731,211.7969 Q484.5638,211.6406 484.9856,211.2031 Q485.2513,210.9375 485.3919,210.8594 Q485.5481,210.7813 485.7513,210.7813 Q486.0794,210.7813 486.3294,211.0469 Q486.595,211.2969 486.595,211.6406 Q486.595,211.9844 486.2513,212.3906 Q485.7513,212.9688 484.9544,213.2969 Q483.8763,213.75 482.5794,213.75 Q481.0638,213.75 479.8606,213.125 Q478.8763,212.625 478.1888,211.5625 Q477.5013,210.4844 477.5013,209.2031 L477.5013,208.0469 Q477.5013,206.7188 478.1106,205.5781 Q478.7356,204.4219 479.8294,203.8125 Q480.9231,203.1875 482.1575,203.1875 Q482.8919,203.1875 483.5325,203.3594 Q484.1888,203.5156 484.7356,203.875 Z " fill="#000000"/><text fill="#000000" font-family="sans-serif" font-size="12" lengthAdjust="spacing" textLength="102" x="495.97" y="212.9102">PatientClientDriver</text><!--MD5=[02ddb95e19422847787025942d105ddb]
class InterviewClientDriver--><rect codeLine="19" fill="#FEFECE" filter="url(#f13vbra914kkcg)" height="53.8359" id="InterviewClientDriver" style="stroke:#A80036;stroke-width:1.5;" width="174" x="446.97" y="263.5"/><ellipse cx="475.47" cy="279.5" fill="#ADD1B2" rx="11" ry="11" style="stroke:#A80036;stroke-width:1.0;"/><path d="M478.2356,275.375 Q478.3919,275.1563 478.5794,275.0469 Q478.7669,274.9375 478.9856,274.9375 Q479.3606,274.9375 479.595,275.2031 Q479.8294,275.4531 479.8294,276.0625 L479.8294,277.5156 Q479.8294,278.125 479.595,278.3906 Q479.3606,278.6563 478.9856,278.6563 Q478.6419,278.6563 478.4388,278.4531 Q478.2356,278.2656 478.1263,277.75 Q478.0794,277.3906 477.8919,277.2031 Q477.5638,276.8281 476.9544,276.6094 Q476.345,276.3906 475.72,276.3906 Q474.9544,276.3906 474.3138,276.7188 Q473.6888,277.0469 473.1888,277.7969 Q472.7044,278.5469 472.7044,279.5781 L472.7044,280.6719 Q472.7044,281.9063 473.595,282.7344 Q474.4856,283.5469 476.0794,283.5469 Q477.0169,283.5469 477.6731,283.2969 Q478.0638,283.1406 478.4856,282.7031 Q478.7513,282.4375 478.8919,282.3594 Q479.0481,282.2813 479.2513,282.2813 Q479.5794,282.2813 479.8294,282.5469 Q480.095,282.7969 480.095,283.1406 Q480.095,283.4844 479.7513,283.8906 Q479.2513,284.4688 478.4544,284.7969 Q477.3763,285.25 476.0794,285.25 Q474.5638,285.25 473.3606,284.625 Q472.3763,284.125 471.6888,283.0625 Q471.0013,281.9844 471.0013,280.7031 L471.0013,279.5469 Q471.0013,278.2188 471.6106,277.0781 Q472.2356,275.9219 473.3294,275.3125 Q474.4231,274.6875 475.6575,274.6875 Q476.3919,274.6875 477.0325,274.8594 Q477.6888,275.0156 478.2356,275.375 Z " fill="#000000"/><text fill="#000000" font-family="sans-serif" font-size="12" lengthAdjust="spacing" textLength="112" x="492.47" y="284.4102">InterviewClientDriver</text><line style="stroke:#A80036;stroke-width:1.5;" x1="447.97" x2="619.97" y1="295.5" y2="295.5"/><ellipse cx="457.97" cy="306.5" fill="#84BE84" rx="3" ry="3" style="stroke:#038048;stroke-width:1.0;"/><text fill="#000000" font-family="sans-serif" font-size="11" lengthAdjust="spacing" textLength="148" x="466.97" y="310.9189">save(study, patient, interview)</text><!--MD5=[bd2621f66ddff63da80395fb87ccb184]
link StudioDrivers to ClientDrivers--><path codeLine="24" d="M268.52,23 C268.52,23 411.52,23 468.96,23 " fill="none" id="StudioDrivers-ClientDrivers" style="stroke:#A80036;stroke-width:1.0;"/><polygon fill="#A80036" points="482.24,23,473.24,19,477.24,23,473.24,27,482.24,23" style="stroke:#A80036;stroke-width:1.0;"/><line style="stroke:#A80036;stroke-width:1.0;" x1="477.24" x2="469.24" y1="23" y2="23"/><polygon fill="#A80036" points="256.52,23,262.52,27,268.52,23,262.52,19,256.52,23" style="stroke:#A80036;stroke-width:1.0;"/><!--MD5=[8c5f89e6aab896263f6c9558100e5715]
link StudyStudioDriver to StudioDrivers--><path codeLine="25" d="M203.47,95.42 C203.47,81.05 203.47,66.69 203.47,52.32 " fill="none" id="StudyStudioDriver-to-StudioDrivers" style="stroke:#A80036;stroke-width:1.0;"/><polygon fill="#A80036" points="203.47,39.13,199.47,45.13,203.47,51.13,207.47,45.13,203.47,39.13" style="stroke:#A80036;stroke-width:1.0;"/><!--MD5=[f2fbd02599ee14f5a7a423628b74e6ff]
link PatientStudioDriver to StudyStudioDriver--><path codeLine="26" d="M203.47,191.98 C203.47,180.21 203.47,168.44 203.47,156.67 " fill="none" id="PatientStudioDriver-StudyStudioDriver" style="stroke:#A80036;stroke-width:1.0;"/><!--MD5=[f247d2080d9a5cd4ea377d9e97dec1b7]
link InterviewStudioDriver to PatientStudioDriver--><path codeLine="27" d="M203.47,259.25 C203.47,247.51 203.47,235.76 203.47,224.02 " fill="none" id="InterviewStudioDriver-PatientStudioDriver" style="stroke:#A80036;stroke-width:1.0;"/><!--MD5=[2c92aae1cce9bf93f23365647df216e2]
reverse link ClientDrivers to StudyClientDriver--><path codeLine="28" d="M533.97,52.32 C533.97,66.69 533.97,81.05 533.97,95.42 " fill="none" id="ClientDrivers-backto-StudyClientDriver" style="stroke:#A80036;stroke-width:1.0;"/><polygon fill="#A80036" points="533.97,39.13,529.97,45.13,533.97,51.13,537.97,45.13,533.97,39.13" style="stroke:#A80036;stroke-width:1.0;"/><!--MD5=[2be3872885c4b532457b861686e30caa]
link StudyClientDriver to PatientClientDriver--><path codeLine="29" d="M533.97,156.67 C533.97,168.44 533.97,180.21 533.97,191.98 " fill="none" id="StudyClientDriver-PatientClientDriver" style="stroke:#A80036;stroke-width:1.0;"/><!--MD5=[9b768830cab5c412c95aa1a3686671d2]
link PatientClientDriver to InterviewClientDriver--><path codeLine="30" d="M533.97,224.02 C533.97,235.76 533.97,247.51 533.97,259.25 " fill="none" id="PatientClientDriver-InterviewClientDriver" style="stroke:#A80036;stroke-width:1.0;"/><!--MD5=[9c1f7b0d42702feb5c9b23d4d3dd4f54]
link StudyStudioDriver to StudyClientDriver--><path codeLine="31" d="M269.47,143 C356.84,143 379.96,143 464.82,143 " fill="none" id="StudyStudioDriver-to-StudyClientDriver" style="stroke:#A80036;stroke-width:1.0;stroke-dasharray:7.0,7.0;"/><polygon fill="#A80036" points="469.97,143,460.97,139,464.97,143,460.97,147,469.97,143" style="stroke:#A80036;stroke-width:1.0;"/><!--MD5=[b83dee3ddbeaa9a0a13f973568e87b1d]
link PatientStudioDriver to PatientClientDriver--><path codeLine="32" d="M272.13,208 C327.47,208 405.48,208 461.76,208 " fill="none" id="PatientStudioDriver-to-PatientClientDriver" style="stroke:#A80036;stroke-width:1.0;stroke-dasharray:7.0,7.0;"/><polygon fill="#A80036" points="466.79,208,457.79,204,461.79,208,457.79,212,466.79,208" style="stroke:#A80036;stroke-width:1.0;"/><!--MD5=[f1758a4acee73ea767304c47bbbdb653]
link InterviewStudioDriver to InterviewClientDriver--><path codeLine="33" d="M311.47,307 C369.49,307 385.27,307 440.83,307 " fill="none" id="InterviewStudioDriver-to-InterviewClientDriver" style="stroke:#A80036;stroke-width:1.0;stroke-dasharray:7.0,7.0;"/><polygon fill="#A80036" points="445.97,307,436.97,303,440.97,307,436.97,311,445.97,307" style="stroke:#A80036;stroke-width:1.0;"/><!--MD5=[ca3a27d78788aa7d27fa54449b750bd7]
link InterviewStudioDriver to StudyStudioDriver--><path codeLine="34" d="M96.47,307 C38.31,307 6,241.93 34.97,191.5 C46.01,172.28 106.75,146.67 133.34,143.36 " fill="none" id="InterviewStudioDriver-to-StudyStudioDriver" style="stroke:#A80036;stroke-width:1.0;stroke-dasharray:7.0,7.0;"/><polygon fill="#A80036" points="138.47,143,129.2174,139.6251,133.4817,143.3421,129.7647,147.6063,138.47,143" style="stroke:#A80036;stroke-width:1.0;"/><!--MD5=[12ecc20c8b7852d59abdbacdebecc5c2]
@startuml drivers2
together {
  class StudioDrivers
  class ClientDrivers
}
together {
  class StudyStudioDriver{
    +save(studyAdapter)
  }
  class PatientStudioDriver
  class InterviewStudioDriver {
    +save(studyAdapter, patient, interview)
  }
}
together {
  class StudyClientDriver{
    +save(studyAdapter)
  }
  class PatientClientDriver
  class InterviewClientDriver{
    +save(study, patient, interview)
  }
}
left to right direction
StudioDrivers *- - -> ClientDrivers
StudyStudioDriver -* StudioDrivers
PatientStudioDriver - StudyStudioDriver
InterviewStudioDriver - PatientStudioDriver
ClientDrivers *- StudyClientDriver
StudyClientDriver - PatientClientDriver
PatientClientDriver - InterviewClientDriver
StudyStudioDriver::save ...> StudyClientDriver::save
PatientStudioDriver ...> PatientClientDriver
InterviewStudioDriver::save ...> InterviewClientDriver::save
InterviewStudioDriver::save .> StudyStudioDriver::save
hide members
show InterviewStudioDriver methods
show StudyStudioDriver methods
show InterviewClientDriver methods
show StudyClientDriver methods
@enduml

PlantUML version 1.2021.8(Sat Jun 26 10:20:59 CEST 2021)
(GPL source distribution)
Java Runtime: OpenJDK Runtime Environment
JVM: OpenJDK 64-Bit Server VM
Default Encoding: Cp1252
Language: en
Country: US
--></g></svg>